<?xml version="1.0" encoding="utf-8"?>
<!-- Generator: Adobe Illustrator 23.0.6, SVG Export Plug-In . SVG Version: 6.00 Build 0)  -->
<svg version="1.1" id="Layer_1" xmlns="http://www.w3.org/2000/svg" xmlns:xlink="http://www.w3.org/1999/xlink" x="0px" y="0px"
	 viewBox="0 0 147.6 147.1" style="enable-background:new 0 0 147.6 147.1;" xml:space="preserve">
<style type="text/css">
	.st0{stroke-miterlimit:10;}
	.st1{stroke-width:3;stroke-linecap:round;stroke-miterlimit:10;}
</style>
<title>add-icon</title>
<g>
	<path class="st0" d="M119.6,21.3H31.8c-3.4,0-6.1,2.8-6.1,6.2v7.3c0,3.4,2.7,6.2,6.1,6.2h0.7v87.2c0,4.3,3.4,7.8,7.7,7.8h71.1
		c4.2,0,7.7-3.5,7.7-7.8V41.1h0.7c3.4,0,6.1-2.8,6.1-6.2v-7.3C125.7,24.1,123,21.3,119.6,21.3z"/>
	<line class="st1" x1="50" y1="47.7" x2="50" y2="118.7"/>
	<line class="st1" x1="74.8" y1="47.7" x2="74.8" y2="118.7"/>
	<line class="st1" x1="101.4" y1="47.7" x2="101.4" y2="118.7"/>
</g>
</svg>
