<svg id="pencil" xmlns="http://www.w3.org/2000/svg" viewBox="0 0 19.23 23.35"><defs><style>.cls-1{fill:#ff3b0d;}.cls-2{fill:#ffbd0a;}.cls-3{fill:#e0c89d;}.cls-4{fill:#303030;}.cls-5{fill:#fff6ab;}.cls-6,.cls-7{fill:none;stroke:#303030;stroke-miterlimit:10;}.cls-7{stroke-width:0.5px;}</style></defs><title>logo</title><polygon class="cls-1" points="5.65 3.79 2.48 6.26 0.7 3.98 4.9 0.7 6.68 2.98 5.65 3.79"/><polygon class="cls-2" points="12.19 18.67 2.48 6.26 5.65 3.79 15.44 16.31 15.45 16.32 12.34 18.76 12.19 18.67"/><polygon class="cls-3" points="15.7 20.72 12.34 18.76 15.45 16.32 16.43 15.55 17.52 19.3 17.51 19.3 15.71 20.71 15.7 20.72"/><polygon class="cls-4" points="18.4 22.29 15.7 20.72 15.71 20.71 17.51 19.3 17.52 19.3 18.4 22.29"/><polygon class="cls-5" points="15.44 16.31 5.65 3.79 6.68 2.98 16.39 15.39 16.43 15.55 15.45 16.32 15.44 16.31"/><polygon class="cls-6" points="15.7 20.72 18.4 22.29 17.52 19.3 16.43 15.55 16.39 15.39 6.68 2.98 4.9 0.7 0.7 3.98 2.48 6.26 12.19 18.67 12.34 18.76 15.7 20.72"/><polyline class="cls-7" points="16.48 15.52 16.43 15.55 15.45 16.32 12.34 18.76 12.29 18.8"/><polyline class="cls-7" points="6.68 2.98 5.65 3.79 2.48 6.26"/><line class="cls-7" x1="17.51" y1="19.3" x2="15.71" y2="20.71"/></svg>