<?xml version="1.0" encoding="utf-8"?>
<!-- Generator: Adobe Illustrator 23.0.6, SVG Export Plug-In . SVG Version: 6.00 Build 0)  -->
<svg version="1.1" xmlns="http://www.w3.org/2000/svg" xmlns:xlink="http://www.w3.org/1999/xlink" x="0px" y="0px"
	 viewBox="0 0 64 64" style="enable-background:new 0 0 64 64;" xml:space="preserve">
<style type="text/css">
	.st0{fill:none;stroke:#2B1E04;stroke-miterlimit:10;}
	.st1{fill:#2B1E04;}
</style>
<g id="background">
</g>
<g id="Layer_2">
	<g>
		<path class="st0" d="M54,19.7c0,6.1-2.3,10.8-6.8,13.9c-4.5,3.2-10.5,4.7-18,4.7c-1,0-1.7,0-2.2-0.1c-0.5,4.8-0.9,11.2-1.2,19.1
			H15.2c0.5-3.3,1.6-12.1,3.2-26.3c1-9.3,1.5-17.2,1.7-24h6.7c0.9,0,2.6,0,5.2-0.1c2.6-0.1,4.8-0.1,6.7-0.1c4.2,0,7.8,1.1,10.8,3.4
			C52.6,12.5,54,15.7,54,19.7z M44.3,21.3c0-4.8-3.2-7.1-9.6-7.1c-1.7,0-3.5,0.2-5.4,0.6c-0.1,2.2-0.6,7.7-1.4,16.5
			c0.6,0.1,1.3,0.1,2.1,0.1C39.5,31.4,44.3,28,44.3,21.3z"/>
	</g>
</g>
<g id="Layer_3">
	<g>
		<g>
			<path class="st1" d="M15.4,54.2c0.9,0,1.8,0,2.7,0c0,0,0.1-0.1,0.1-0.1c0.1-0.1,0.2-0.1,0.3-0.2c0.1-0.1,0.2-0.1,0.3-0.2
				c0,0,0.1-0.1,0.1-0.1c-0.9,0-1.8,0-2.7,0c0,0-0.1,0.1-0.1,0.1c-0.1,0.1-0.2,0.1-0.3,0.2c-0.1,0.1-0.2,0.1-0.3,0.2
				C15.5,54.1,15.4,54.2,15.4,54.2L15.4,54.2z"/>
		</g>
	</g>
	<g>
		<g>
			<path class="st1" d="M16.4,47.5c0.7,0,1.4,0,2.1,0c0,0,0.1-0.1,0.1-0.1c0.1-0.1,0.2-0.1,0.3-0.2c0.1-0.1,0.2-0.1,0.3-0.2
				c0,0,0.1-0.1,0.1-0.1c-0.7,0-1.4,0-2.1,0c0,0-0.1,0.1-0.1,0.1c-0.1,0.1-0.2,0.1-0.3,0.2c-0.1,0.1-0.2,0.1-0.3,0.2
				C16.5,47.5,16.4,47.5,16.4,47.5L16.4,47.5z"/>
		</g>
	</g>
	<g>
		<g>
			<path class="st1" d="M17.2,39.8c0.9-0.1,1.8-0.2,2.7-0.2c0,0,0.1-0.1,0.1-0.1c0.1-0.1,0.2-0.1,0.3-0.2c0.1-0.1,0.2-0.1,0.3-0.2
				c0,0,0.1-0.1,0.1-0.1c-0.9,0.1-1.8,0.2-2.7,0.2c0,0-0.1,0.1-0.1,0.1c-0.1,0.1-0.2,0.1-0.3,0.2c-0.1,0.1-0.2,0.1-0.3,0.2
				C17.3,39.8,17.2,39.8,17.2,39.8L17.2,39.8z"/>
		</g>
	</g>
	<g>
		<g>
			<path class="st1" d="M17.6,34.4c1,0,2,0,3,0.1c0,0,0.1-0.1,0.1-0.1c0.1-0.1,0.2-0.1,0.3-0.2c0.1-0.1,0.2-0.1,0.3-0.2
				c0,0,0.1-0.1,0.1-0.1c-1-0.1-2-0.1-3-0.1c0,0-0.1,0.1-0.1,0.1c-0.1,0.1-0.2,0.1-0.3,0.2c-0.1,0.1-0.2,0.1-0.3,0.2
				C17.7,34.4,17.6,34.4,17.6,34.4L17.6,34.4z"/>
		</g>
	</g>
	<g>
		<g>
			<path class="st1" d="M18.3,28.6c1.1,0,2.3,0,3.4,0c0,0,0.1-0.1,0.1-0.1c0.1-0.1,0.2-0.1,0.3-0.2c0.1-0.1,0.2-0.1,0.3-0.2
				c0,0,0.1-0.1,0.1-0.1c-1.1,0-2.3,0-3.4,0c0,0-0.1,0.1-0.1,0.1c-0.1,0.1-0.2,0.1-0.3,0.2c-0.1,0.1-0.2,0.1-0.3,0.2
				C18.4,28.5,18.3,28.6,18.3,28.6L18.3,28.6z"/>
		</g>
	</g>
	<g>
		<g>
			<path class="st1" d="M19.1,22.6c0.8,0,1.5-0.1,2.3-0.1c0,0,0.1-0.1,0.1-0.1c0.1-0.1,0.2-0.1,0.3-0.2c0.1-0.1,0.2-0.1,0.3-0.2
				c0,0,0.1-0.1,0.1-0.1c-0.8,0-1.5,0.1-2.3,0.1c0,0-0.1,0.1-0.1,0.1c-0.1,0.1-0.2,0.1-0.3,0.2c-0.1,0.1-0.2,0.1-0.3,0.2
				C19.2,22.6,19.2,22.6,19.1,22.6L19.1,22.6z"/>
		</g>
	</g>
	<g>
		<g>
			<path class="st1" d="M19.3,17.2c1.2-0.1,2.3-0.1,3.5-0.2c0,0,0.1-0.1,0.1-0.1c0.1-0.1,0.2-0.1,0.3-0.2c0.1-0.1,0.2-0.1,0.3-0.2
				c0,0,0.1-0.1,0.1-0.1c-1.2,0.1-2.3,0.1-3.5,0.2c0,0-0.1,0.1-0.1,0.1c-0.1,0.1-0.2,0.1-0.3,0.2c-0.1,0.1-0.2,0.1-0.3,0.2
				C19.4,17.2,19.3,17.2,19.3,17.2L19.3,17.2z"/>
		</g>
	</g>
	<g>
		<g>
			<path class="st1" d="M20.1,11.5c1.1,0,2.2,0,3.2,0c0,0,0.1-0.1,0.1-0.1c0.1-0.1,0.2-0.1,0.3-0.2c0.1-0.1,0.2-0.1,0.3-0.2
				c0,0,0.1-0.1,0.1-0.1c-1.1,0-2.2,0-3.2,0c0,0-0.1,0.1-0.1,0.1c-0.1,0.1-0.2,0.1-0.3,0.2c-0.1,0.1-0.2,0.1-0.3,0.2
				C20.2,11.5,20.1,11.5,20.1,11.5L20.1,11.5z"/>
		</g>
	</g>
	<g>
		<g>
			<path class="st1" d="M16.6,43.7c0.8,0,1.7-0.1,2.5-0.3c0,0,0.1-0.1,0.1-0.1c0.1-0.1,0.2-0.1,0.3-0.2c0.1-0.1,0.2-0.1,0.3-0.2
				c0,0,0.1-0.1,0.1-0.1c-0.8,0.2-1.6,0.3-2.5,0.3c0,0-0.1,0.1-0.1,0.1c-0.1,0.1-0.2,0.1-0.3,0.2c-0.1,0.1-0.2,0.1-0.3,0.2
				C16.7,43.6,16.7,43.7,16.6,43.7L16.6,43.7z"/>
		</g>
	</g>
	<g>
		<g>
			<path class="st1" d="M15.6,51.1c0.8-0.1,1.5-0.2,2.3-0.3c0,0,0.1-0.1,0.1-0.1c0.1-0.1,0.2-0.1,0.3-0.2c0.1-0.1,0.2-0.1,0.3-0.2
				c0,0,0.1-0.1,0.1-0.1c-0.8,0.1-1.5,0.2-2.3,0.3c0,0-0.1,0.1-0.1,0.1c-0.1,0.1-0.2,0.1-0.3,0.2C16,50.9,15.9,51,15.8,51
				C15.7,51.1,15.7,51.1,15.6,51.1L15.6,51.1z"/>
		</g>
	</g>
	<g>
		<g>
			<path class="st1" d="M18.1,50.8c0.3,0,0.6-0.5,0.9-0.5C18.7,50.3,18.4,50.8,18.1,50.8L18.1,50.8z"/>
		</g>
	</g>
	<g>
		<g>
			<path class="st1" d="M17.5,37c0.9,0,1.9-0.1,2.8-0.2c0,0,0.1-0.1,0.1-0.1c0.1-0.1,0.2-0.1,0.3-0.2c0.1-0.1,0.2-0.1,0.3-0.2
				c0,0,0.1-0.1,0.1-0.1c-0.9,0.1-1.9,0.2-2.8,0.2c0,0-0.1,0.1-0.1,0.1c-0.1,0.1-0.2,0.1-0.3,0.2c-0.1,0.1-0.2,0.1-0.3,0.2
				C17.6,36.9,17.5,37,17.5,37L17.5,37z"/>
		</g>
	</g>
	<g>
		<g>
			<path class="st1" d="M18.2,31.1c1.1,0,2.3-0.1,3.4-0.1c0,0,0.1-0.1,0.1-0.1c0.1-0.1,0.2-0.1,0.3-0.2c0.1-0.1,0.2-0.1,0.3-0.2
				c0,0,0.1-0.1,0.1-0.1c-1.1,0-2.3,0.1-3.4,0.1c0,0-0.1,0.1-0.1,0.1c-0.1,0.1-0.2,0.1-0.3,0.2c-0.1,0.1-0.2,0.1-0.3,0.2
				C18.3,31,18.2,31.1,18.2,31.1L18.2,31.1z"/>
		</g>
	</g>
	<g>
		<g>
			<path class="st1" d="M19,25.6c1,0.1,2,0.1,3.1,0.2c0,0,0.1-0.1,0.1-0.1c0.1-0.1,0.2-0.1,0.3-0.2c0.1-0.1,0.2-0.1,0.3-0.2
				c0,0,0.1-0.1,0.1-0.1c-1-0.1-2-0.1-3.1-0.2c0,0-0.1,0.1-0.1,0.1c-0.1,0.1-0.2,0.1-0.3,0.2c-0.1,0.1-0.2,0.1-0.3,0.2
				C19.1,25.5,19,25.6,19,25.6L19,25.6z"/>
		</g>
	</g>
	<g>
		<g>
			<path class="st1" d="M19.3,19.8c0.7,0,1.5,0,2.2,0c0,0,0.1-0.1,0.1-0.1c0.1-0.1,0.2-0.1,0.3-0.2c0.1-0.1,0.2-0.1,0.3-0.2
				c0,0,0.1-0.1,0.1-0.1c-0.7,0-1.5,0-2.2,0c0,0-0.1,0.1-0.1,0.1c-0.1,0.1-0.2,0.1-0.3,0.2c-0.1,0.1-0.2,0.1-0.3,0.2
				C19.4,19.7,19.3,19.8,19.3,19.8L19.3,19.8z"/>
		</g>
	</g>
	<g>
		<g>
			<path class="st1" d="M19.9,14.2c1,0,2,0,3.1,0c0,0,0.1-0.1,0.1-0.1c0.1-0.1,0.2-0.1,0.3-0.2c0.1-0.1,0.2-0.1,0.3-0.2
				c0,0,0.1-0.1,0.1-0.1c-1,0-2,0-3.1,0c0,0-0.1,0.1-0.1,0.1c-0.1,0.1-0.2,0.1-0.3,0.2C20.2,14,20.1,14,20,14.1
				C20,14.1,19.9,14.2,19.9,14.2L19.9,14.2z"/>
		</g>
	</g>
</g>
</svg>
