<svg id="Layer_2" data-name="Layer 2" xmlns="http://www.w3.org/2000/svg" viewBox="0 0 13.68 22.06"><defs><style>.cls-1{fill:#303030;}</style></defs><title>logo</title><path class="cls-1" d="M19.63,5.58A5.68,5.68,0,0,1,17,10.74a12.35,12.35,0,0,1-6.63,1.66c-.53,0-.92,0-1.16,0C9,14.65,8.8,17.2,8.75,20H5.94c.2-1.23.62-4.54,1.26-10,.35-3.34.55-6.33.61-9H9.9L11.74,1c1,0,1.86,0,2.56,0a5.59,5.59,0,0,1,3.88,1.31A4.24,4.24,0,0,1,19.63,5.58Zm-2.42.57q0-3.26-4.48-3.26a17.36,17.36,0,0,0-2.64.22L9.36,10.5c.32,0,.72,0,1.18,0Q17.22,10.53,17.21,6.15Z" transform="translate(-5.94 -1)"/><path class="cls-1" d="M14.63,13q-.24,1-1,5.62a4.86,4.86,0,0,1-2,3.6A6.6,6.6,0,0,1,8,23.06a8.79,8.79,0,0,1-1.8-.16l.32-1.1a4.36,4.36,0,0,0,1.4.25,5,5,0,0,0,2.39-.45,3.58,3.58,0,0,0,1.59-2.79A52.12,52.12,0,0,0,12.53,13Z" transform="translate(-5.94 -1)"/></svg>