<?xml version="1.0" encoding="utf-8"?>
<!-- Generator: Adobe Illustrator 23.0.6, SVG Export Plug-In . SVG Version: 6.00 Build 0)  -->
<svg version="1.1" id="Layer_1" xmlns="http://www.w3.org/2000/svg" xmlns:xlink="http://www.w3.org/1999/xlink" x="0px" y="0px"
	 viewBox="0 0 20.7 24.5" style="enable-background:new 0 0 20.7 24.5;" xml:space="preserve">
<style type="text/css">
	.st0{fill:#303030;}
</style>
<g id="screw">
	<g>
		<path class="st0" d="M10.6,19.6c-1.9-0.5-3-1.3-3.5-2.4c-0.3-0.8-0.2-1.5-0.1-2.1c0.1-0.5,0.1-0.9-0.1-1.1c-0.5-0.4-1.9,0.3-3.1,1
			c-1.1,0.6-1.7,0.9-2,0.7c-0.3-0.3-0.1-1.1,3.3-5.1l0.2,0.2C2,14.7,2,15.4,2.1,15.5s1.1-0.4,1.7-0.7c1.3-0.7,2.7-1.5,3.4-0.9
			c0.3,0.3,0.3,0.8,0.2,1.3c-0.1,0.5-0.2,1.2,0.1,1.9c0.4,1,1.5,1.8,3.3,2.2L10.6,19.6z"/>
	</g>
</g>
<g id="pencil">
	<title>logo</title>
	<path class="st0" d="M16.2,1.6l-6,14.1l0.5,3.8l3.1-2.3l6-14.1C19.9,2.6,16.4,1.1,16.2,1.6z"/>
</g>
</svg>
