<svg id="pencil" xmlns="http://www.w3.org/2000/svg" viewBox="0 0 20.67 24.45"><defs><style>.cls-1,.cls-7,.cls-8{fill:none;}.cls-1{stroke:#fff;stroke-linecap:round;stroke-linejoin:round;stroke-width:3px;}.cls-2{fill:#ff3b0d;}.cls-3{fill:#ffbd0a;}.cls-4{fill:#e0c89d;}.cls-5{fill:#303030;}.cls-6{fill:#fff6ab;}.cls-7,.cls-8{stroke:#303030;stroke-miterlimit:10;}.cls-8{stroke-width:0.5px;}</style></defs><title>logo</title><g id="border"><path class="cls-1" d="M21.42,22.1l-1.64-5.31a.9.9,0,0,0-.12-.24L8.14,1.82a.7.7,0,0,0-1-.14L4,4.12a.7.7,0,0,0-.1,1L15.46,19.83a.86.86,0,0,0,.2.18l4.77,2.87A.67.67,0,0,0,21.42,22.1Z" transform="translate(-2.29 -0.04)"/></g><polygon class="cls-2" points="6.17 4.31 3 6.78 1.22 4.5 5.41 1.22 7.2 3.5 6.17 4.31"/><polygon class="cls-3" points="12.71 19.19 3 6.78 6.17 4.31 15.96 16.83 15.97 16.84 12.85 19.28 12.71 19.19"/><polygon class="cls-4" points="16.22 21.24 12.85 19.28 15.97 16.84 16.95 16.07 18.04 19.81 18.03 19.82 16.23 21.23 16.22 21.24"/><polygon class="cls-5" points="18.91 22.8 16.22 21.24 16.23 21.23 18.03 19.82 18.04 19.81 18.91 22.8"/><polygon class="cls-6" points="15.96 16.83 6.17 4.31 7.2 3.5 16.9 15.91 16.95 16.07 15.97 16.84 15.96 16.83"/><polygon class="cls-7" points="16.22 21.24 18.91 22.8 18.04 19.81 16.95 16.07 16.9 15.91 7.2 3.5 5.41 1.22 1.22 4.5 3 6.78 12.71 19.19 12.85 19.28 16.22 21.24"/><polyline class="cls-8" points="17 16.04 16.95 16.07 15.97 16.84 12.85 19.28 12.8 19.32"/><polyline class="cls-8" points="7.2 3.5 6.17 4.31 3 6.78"/><line class="cls-8" x1="18.03" y1="19.82" x2="16.23" y2="21.23"/></svg>