<?xml version="1.0" encoding="utf-8"?>
<!-- Generator: Adobe Illustrator 23.0.6, SVG Export Plug-In . SVG Version: 6.00 Build 0)  -->
<svg version="1.1" id="Layer_1" xmlns="http://www.w3.org/2000/svg" xmlns:xlink="http://www.w3.org/1999/xlink" x="0px" y="0px"
	 viewBox="0 0 512 512" style="enable-background:new 0 0 512 512;" xml:space="preserve">
<style type="text/css">
	.st0{fill:#303030;}
</style>
<g>
	<g id="screw">
		<g>
			<path class="st0" d="M251.7,512c-53.7-14.1-84.9-36.8-99-67.9c-8.5-22.6-5.7-42.4-2.8-59.4c2.8-14.1,2.8-25.5-2.8-31.1
				c-14.1-11.3-53.7,8.5-87.7,28.3c-31.1,17-48.1,25.5-56.6,19.8c-8.5-8.5-2.8-31.1,93.3-144.3l5.7,5.7
				C8.4,373.4,8.4,393.2,11.3,396s31.1-11.3,48.1-19.8c36.8-19.8,76.4-42.4,96.2-25.5c8.5,8.5,8.5,22.6,5.7,36.8s-5.7,33.9,2.8,53.7
				c11.3,28.3,42.4,50.9,93.3,62.2L251.7,512z"/>
		</g>
	</g>
	<g id="pencil">
		<title>logo</title>
		<path class="st0" d="M410.1,2.8L240.4,401.7l14.1,107.5l87.7-65.1L511.9,45.3C514.8,31.1,415.8-11.3,410.1,2.8z"/>
	</g>
</g>
</svg>
