<?xml version="1.0" standalone="no"?>
<!DOCTYPE svg PUBLIC "-//W3C//DTD SVG 20010904//EN"
 "http://www.w3.org/TR/2001/REC-SVG-20010904/DTD/svg10.dtd">
<svg version="1.0" xmlns="http://www.w3.org/2000/svg"
 width="512.000000pt" height="512.000000pt" viewBox="0 0 512.000000 512.000000"
 preserveAspectRatio="xMidYMid meet">
<metadata>
Created by potrace 1.11, written by Peter Selinger 2001-2013
</metadata>
<g transform="translate(0.000000,512.000000) scale(0.100000,-0.100000)"
fill="#000000" stroke="none">
<path d="M4122 5111 c-7 -4 -45 -82 -84 -172 -129 -302 -380 -891 -583 -1369
-47 -113 -93 -218 -100 -235 -8 -16 -64 -149 -125 -295 -62 -146 -116 -269
-121 -274 -5 -6 -9 -16 -9 -23 0 -8 -13 -43 -30 -78 -16 -35 -30 -67 -30 -70
0 -4 -11 -30 -23 -58 -13 -29 -55 -124 -92 -212 -214 -505 -248 -585 -271
-633 -13 -29 -24 -55 -24 -57 0 -6 -71 -174 -106 -253 -13 -29 -24 -55 -24
-57 0 -2 -11 -28 -24 -57 -72 -156 -73 -160 -59 -255 12 -84 17 -121 29 -223
2 -25 9 -74 14 -110 5 -36 12 -85 15 -110 2 -25 6 -54 9 -65 2 -12 7 -48 11
-80 4 -33 9 -72 11 -86 2 -15 6 -47 9 -70 5 -43 12 -97 21 -150 l4 -26 -83 22
c-472 129 -767 371 -848 698 -31 125 -28 261 11 466 25 132 4 255 -56 321 -48
53 -103 70 -212 66 -136 -5 -267 -53 -547 -199 -408 -212 -657 -324 -684 -307
-53 32 80 281 332 620 86 115 283 368 346 442 10 13 56 68 101 123 46 55 85
102 89 105 29 24 30 38 6 64 -13 14 -28 26 -32 26 -4 -1 -62 -66 -128 -146
-66 -81 -125 -151 -130 -158 -6 -6 -28 -33 -50 -61 -22 -27 -42 -52 -45 -55
-8 -8 -120 -149 -163 -205 -216 -281 -322 -438 -390 -575 -42 -86 -51 -114
-52 -158 0 -46 4 -57 27 -77 66 -57 215 -1 673 257 83 46 166 91 185 100 151
70 196 89 266 113 177 60 300 50 340 -28 23 -42 26 -151 9 -252 -27 -156 -32
-207 -30 -308 4 -163 27 -265 83 -367 159 -287 450 -477 945 -616 10 -3 20 1
23 10 3 9 10 16 15 16 7 0 123 83 319 230 32 23 397 294 429 318 13 9 48 36
79 59 l55 41 119 279 c65 153 123 287 128 298 5 11 22 52 38 90 154 365 227
536 242 570 9 22 48 112 85 200 37 88 85 199 106 248 22 48 39 89 39 92 0 2
11 28 24 57 13 29 43 98 66 153 48 115 400 942 423 995 8 19 27 64 42 100 15
36 42 99 60 140 18 41 63 147 100 235 37 88 75 178 85 200 77 178 131 309 136
332 4 22 -1 35 -27 61 -18 18 -45 40 -61 49 -15 10 -28 21 -28 25 0 4 -5 8
-11 8 -6 0 -23 9 -38 20 -45 32 -258 135 -366 178 -92 36 -226 79 -300 97 -46
11 -149 15 -163 6z"/>
</g>
</svg>
